<?xml version="1.0" encoding="utf-8"?>
<!-- Generator: Adobe Illustrator 16.0.0, SVG Export Plug-In . SVG Version: 6.00 Build 0)  -->
<!DOCTYPE svg PUBLIC "-//W3C//DTD SVG 1.1//EN" "http://www.w3.org/Graphics/SVG/1.1/DTD/svg11.dtd">
<svg version="1.1" id="Layer_1" xmlns="http://www.w3.org/2000/svg" xmlns:xlink="http://www.w3.org/1999/xlink" x="0px" y="0px"
	 width="200px" height="100px" viewBox="0 0 200 100" enable-background="new 0 0 200 100" xml:space="preserve">
<rect fill-rule="evenodd" clip-rule="evenodd" fill="#EEEEEE" width="200" height="100"/>
<g>
	<g>
		<path fill-rule="evenodd" clip-rule="evenodd" fill="#ACACAC" d="M102.658,60.99c-6.015,0-12.032-0.112-18.042,0.057
			c-2.283,0.065-4.608-2.13-4.926-4.337c-0.51-3.54-1.279-7.04-1.829-10.569c-0.583-3.742-1.365-7.45-1.898-11.202
			c-0.209-1.473-0.506-2.968-0.849-4.44c-0.622-2.672,0.509-4.824,3.501-5.295c1.972-0.311,3.943-0.651,5.909-0.985
			c3.313-0.562,6.616-1.18,9.938-1.705c2.01-0.317,4.023-0.674,6.014-1.072c2.649-0.531,5.325-0.904,7.967-1.477
			c2.116-0.459,4.278-0.708,6.409-1.129c1.717-0.34,3.859,1.556,4.043,3.413c0.01,0.105-0.006,0.214,0.014,0.318
			c0.149,0.795,0.146,1.671,0.498,2.364c0.436,0.854,1.409,0.318,2.137,0.43c2.152,0.331,3.49,1.847,3.492,4.063
			c0.004,9.093-0.02,18.186,0.016,27.28c0.01,2.283-1.722,4.392-4.242,4.334C114.762,60.896,108.709,60.99,102.658,60.99z
			 M102.707,57.867c5.942,0,11.885-0.021,17.826,0.02c1.021,0.007,1.412-0.207,1.406-1.336c-0.047-8.913-0.025-17.826-0.027-26.74
			c-0.001-1.377-0.121-1.492-1.542-1.492c-11.778-0.001-23.557-0.001-35.335,0c-1.433,0-1.576,0.144-1.576,1.596
			c-0.002,8.843-0.002,17.686,0,26.528c0,1.401,0.021,1.423,1.422,1.423C90.822,57.867,96.765,57.867,102.707,57.867z
			 M97.188,25.036c0.008,0.106,0.016,0.213,0.023,0.319c0.416,0,0.831,0,1.247,0c5.37,0,10.741,0,16.111,0
			c1.692,0,1.94-0.321,1.52-1.98c-0.034-0.136-0.121-0.26-0.148-0.396c-0.185-0.924-0.662-1.098-1.604-0.948
			c-1.004,0.158-1.984,0.427-2.995,0.558c-1.739,0.225-3.462,0.579-5.191,0.88c-1.522,0.266-3.044,0.533-4.565,0.799
			C100.12,24.524,98.654,24.78,97.188,25.036z M80.234,41.761c0.332-0.374,0.242-0.768,0.243-1.145
			c0.007-3.636,0.003-7.272,0.004-10.908c0-1.967,0.003-1.965-1.842-1.386c-0.419,0.131-0.692,0.398-0.631,0.846
			c0.146,1.078,0.317,2.153,0.507,3.224c0.289,1.621,0.706,3.227,0.878,4.859C79.554,38.784,80.16,40.216,80.234,41.761z"/>
		<path fill-rule="evenodd" clip-rule="evenodd" fill="#FDFDFD" d="M102.707,57.867c-5.942,0-11.885,0-17.827-0.002
			c-1.401,0-1.421-0.021-1.422-1.423c-0.001-8.843-0.001-17.686,0-26.528c0-1.452,0.144-1.596,1.576-1.596
			c11.778-0.001,23.557-0.001,35.335,0c1.421,0,1.541,0.115,1.542,1.492c0.002,8.914-0.02,17.827,0.027,26.74
			c0.006,1.129-0.385,1.343-1.406,1.336C114.592,57.846,108.649,57.867,102.707,57.867z M102.632,55.061
			c5.059,0,10.118-0.018,15.177,0.018c0.859,0.006,1.174-0.211,1.157-1.118c-0.053-2.829-0.039-5.66-0.005-8.49
			c0.009-0.668-0.234-1.125-0.688-1.573c-2.762-2.734-5.516-5.476-8.246-8.241c-0.488-0.495-0.811-0.69-1.322-0.032
			c-0.428,0.55-0.986,0.997-1.484,1.492c-3.013,3.001-6.038,5.989-9.024,9.017c-0.519,0.525-0.856,0.607-1.378,0.047
			c-0.744-0.798-1.615-1.482-2.308-2.319c-0.549-0.663-0.911-0.508-1.4-0.012c-1.381,1.399-2.7,2.875-4.188,4.152
			c-1.817,1.561-2.949,3.262-2.548,5.809c0.145,0.923,0.303,1.281,1.293,1.271C92.655,55.037,97.644,55.061,102.632,55.061z
			 M90.893,40.201c2.45-0.007,4.456-2.002,4.441-4.417c-0.015-2.481-2.04-4.479-4.525-4.479c-2.62,0-4.507,2.178-4.456,4.543
			C86.405,38.324,88.484,40.368,90.893,40.201z"/>
		<path fill-rule="evenodd" clip-rule="evenodd" fill="#F1F1F1" d="M97.188,25.036c1.466-0.256,2.931-0.512,4.396-0.769
			c1.521-0.266,3.043-0.533,4.565-0.799c1.729-0.301,3.452-0.655,5.191-0.88c1.011-0.131,1.991-0.399,2.995-0.558
			c0.941-0.149,1.419,0.024,1.604,0.948c0.027,0.136,0.114,0.26,0.148,0.396c0.421,1.659,0.173,1.98-1.52,1.98
			c-5.37,0-10.741,0-16.111,0c-0.416,0-0.831,0-1.247,0C97.204,25.249,97.196,25.143,97.188,25.036z"/>
		<path fill-rule="evenodd" clip-rule="evenodd" fill="#EFEFEF" d="M80.234,41.761c-0.074-1.544-0.68-2.977-0.84-4.51
			c-0.172-1.632-0.589-3.238-0.878-4.859c-0.19-1.071-0.361-2.146-0.507-3.224c-0.061-0.447,0.211-0.714,0.631-0.846
			c1.845-0.579,1.843-0.581,1.842,1.386c-0.001,3.636,0.003,7.272-0.004,10.908C80.476,40.993,80.565,41.387,80.234,41.761z"/>
		<path fill-rule="evenodd" clip-rule="evenodd" fill="#ABABAB" d="M102.632,55.061c-4.988,0-9.977-0.023-14.965,0.02
			c-0.99,0.01-1.148-0.349-1.293-1.271c-0.4-2.547,0.731-4.248,2.548-5.809c1.488-1.277,2.807-2.753,4.188-4.152
			c0.489-0.496,0.852-0.65,1.4,0.012c0.692,0.836,1.563,1.521,2.308,2.319c0.522,0.561,0.859,0.479,1.378-0.047
			c2.986-3.027,6.012-6.016,9.024-9.017c0.498-0.496,1.057-0.942,1.484-1.492c0.512-0.658,0.834-0.462,1.322,0.032
			c2.73,2.766,5.484,5.507,8.246,8.241c0.453,0.448,0.696,0.905,0.688,1.573c-0.034,2.83-0.048,5.661,0.005,8.49
			c0.017,0.907-0.298,1.124-1.157,1.118C112.75,55.043,107.69,55.061,102.632,55.061z"/>
		<path fill-rule="evenodd" clip-rule="evenodd" fill="#ACACAC" d="M90.893,40.201c-2.408,0.167-4.487-1.877-4.54-4.353
			c-0.051-2.365,1.836-4.543,4.456-4.543c2.485,0,4.511,1.998,4.525,4.479C95.349,38.199,93.343,40.194,90.893,40.201z"/>
	</g>
	<text transform="matrix(1 0 0 1 58.1162 79.043)" fill="#ABABAB" font-family="'ArialRoundedMTBold'" font-size="7.2362">IMAGE NOT AVAILABLE</text>
</g>
</svg>
