<svg width="30" height="30" viewBox="0 0 30 30" fill="none" xmlns="http://www.w3.org/2000/svg">
<path fill-rule="evenodd" clip-rule="evenodd" d="M15 0C6.72 0 0 6.72 0 15C0 23.28 6.72 30 15 30C23.28 30 30 23.28 30 15C30 6.72 23.28 0 15 0ZM17.115 24.135V27H13.11V24.105C10.545 23.565 8.37 21.915 8.205 19.005H11.145C11.295 20.58 12.375 21.81 15.12 21.81C18.06 21.81 18.72 20.34 18.72 19.425C18.72 18.18 18.06 17.01 14.715 16.215C10.995 15.315 8.445 13.785 8.445 10.71C8.445 8.13 10.53 6.45 13.11 5.895V3H17.115V5.925C19.905 6.6 21.3 8.715 21.39 11.01H18.45C18.375 9.345 17.49 8.205 15.12 8.205C12.87 8.205 11.52 9.225 11.52 10.665C11.52 11.925 12.495 12.75 15.525 13.53C18.555 14.31 21.795 15.615 21.795 19.395C21.78 22.14 19.725 23.64 17.115 24.135Z" fill="#EF4036"/>
</svg>
