<svg width="34" height="30" viewBox="0 0 34 30" fill="none" xmlns="http://www.w3.org/2000/svg">
<path d="M32 11.5002H24.815L18.23 1.6452C17.63 0.760195 16.325 0.760195 15.74 1.6452L9.155 11.5002H2C1.175 11.5002 0.5 12.1752 0.5 13.0002C0.5 13.1352 0.515 13.2702 0.56 13.4052L4.37 27.3102C4.715 28.5702 5.87 29.5002 7.25 29.5002H26.75C28.13 29.5002 29.285 28.5702 29.645 27.3102L33.455 13.4052L33.5 13.0002C33.5 12.1752 32.825 11.5002 32 11.5002ZM16.985 5.18519L21.2 11.5002H12.77L16.985 5.18519ZM17 23.5002C15.35 23.5002 14 22.1502 14 20.5002C14 18.8502 15.35 17.5002 17 17.5002C18.65 17.5002 20 18.8502 20 20.5002C20 22.1502 18.65 23.5002 17 23.5002Z" fill="#77BA6A"/>
</svg>
