<svg width="158" height="175" viewBox="0 0 158 175" fill="none" xmlns="http://www.w3.org/2000/svg">
<path d="M144.375 13.125L131.25 0L118.125 13.125L105 0L91.875 13.125L78.75 0L65.625 13.125L52.5 0L39.375 13.125L26.25 0V122.5H0V148.75C0 163.275 11.725 175 26.25 175H131.25C145.775 175 157.5 163.275 157.5 148.75V0L144.375 13.125ZM105 157.5H26.25C21.4375 157.5 17.5 153.563 17.5 148.75V140H105V157.5ZM140 148.75C140 153.563 136.062 157.5 131.25 157.5C126.438 157.5 122.5 153.563 122.5 148.75V122.5H43.75V26.25H140V148.75Z" fill="#F5F5F5"/>
<path d="M105 43.75H52.5V61.25H105V43.75Z" fill="#F5F5F5"/>
<path d="M105 70H52.5V87.5H105V70Z" fill="#F5F5F5"/>
<path d="M131.25 43.75H113.75V61.25H131.25V43.75Z" fill="#F5F5F5"/>
<path d="M131.25 70H113.75V87.5H131.25V70Z" fill="#F5F5F5"/>
</svg>
