<svg width="24" height="24" viewBox="0 0 24 24" fill="none" xmlns="http://www.w3.org/2000/svg">
<path d="M9.60005 6.6001H4.80005V8.4001H9.60005V6.6001Z" fill="#BDCCE0"/>
<path d="M18.6 10.152V6H13.8V7.8H16.8V9.492L13.2 13.8H9.60002V9.6H2.40002V15.6H4.20002C4.20002 17.256 5.54402 18.6 7.20002 18.6C8.85602 18.6 10.2 17.256 10.2 15.6H14.04L18.6 10.152ZM7.20002 16.8C6.54002 16.8 6.00002 16.26 6.00002 15.6H8.40002C8.40002 16.26 7.86002 16.8 7.20002 16.8Z" fill="#BDCCE0"/>
<path d="M18.6 12.6001C16.944 12.6001 15.6 13.9441 15.6 15.6001C15.6 17.2561 16.944 18.6001 18.6 18.6001C20.256 18.6001 21.6 17.2561 21.6 15.6001C21.6 13.9441 20.256 12.6001 18.6 12.6001ZM18.6 16.8001C17.94 16.8001 17.4 16.2601 17.4 15.6001C17.4 14.9401 17.94 14.4001 18.6 14.4001C19.26 14.4001 19.8 14.9401 19.8 15.6001C19.8 16.2601 19.26 16.8001 18.6 16.8001Z" fill="#BDCCE0"/>
</svg>
