<svg width="8" height="12" viewBox="0 0 8 12" fill="none" xmlns="http://www.w3.org/2000/svg">
<path d="M7.74 6.68512C6.91 4.52512 3.825 4.50012 4.995 0.995117C2.76 2.00012 0.99 4.58512 2.74 8.00012C0.265 6.96012 1.35 4.35512 1.35 4.35512C1.35 4.35512 0 5.18512 0 7.69512C0.19 10.4951 2.555 11.3551 3.405 11.4651C4.62 11.6201 5.935 11.3951 6.88 10.5301C7.92 9.56512 8.3 8.02512 7.74 6.68512ZM3.1 9.20012C3.82 9.02512 4.19 8.50512 4.29 8.04512C4.455 7.33012 3.81 6.63012 4.245 5.50012C4.41 6.43512 5.88 7.02012 5.88 8.04012C5.92 9.30512 4.55 10.3901 3.1 9.20012Z" fill="white"/>
</svg>
