<svg width="398" height="154" viewBox="0 0 398 154" fill="none" xmlns="http://www.w3.org/2000/svg">
<g clip-path="url(#clip0)">
<path d="M168.6 47.4004H153V104.9H161.5V83.1004H167.2C174.4 83.1004 180.1 81.5004 184.2 78.4004C188.3 75.2004 190.3 70.6004 190.3 64.7004C190.4 53.2004 183.1 47.4004 168.6 47.4004ZM178.2 73.0004C175.8 74.7004 171.9 75.6004 166.5 75.6004H161.6V54.9004H168C172.7 54.9004 176.3 55.8004 178.4 57.4004C180.6 59.1004 181.6 61.5004 181.6 64.9004C181.6 68.7004 180.5 71.3004 178.2 73.0004Z" fill="#000"/>
<path d="M199.2 47.4004C197.9 47.4004 196.7 47.8004 195.8 48.6004C194.9 49.4004 194.4 50.7004 194.4 52.5004C194.4 54.2004 194.9 55.5004 195.8 56.4004C196.7 57.2004 197.9 57.7004 199.2 57.7004C200.5 57.7004 201.6 57.3004 202.5 56.4004C203.5 55.5004 204 54.2004 204 52.5004C204 50.7004 203.5 49.4004 202.5 48.6004C201.5 47.8004 200.4 47.4004 199.2 47.4004Z" fill="#000"/>
<path d="M203.3 61.3003H194.9V104.9H203.3V61.3003Z" fill="#000"/>
<path d="M231.4 60.6006C228.5 60.6006 225.7 61.2006 223.3 62.4006C221.2 63.4006 219.5 64.7006 218.2 66.4006L217.3 61.4006H210.4V105.001H218.8V82.4006C218.8 77.2006 219.7 73.4006 221.6 71.2006C223.4 69.0006 226.4 67.9006 230.4 67.9006C233.4 67.9006 235.6 68.7006 237 70.2006C238.4 71.7006 239.1 74.1006 239.1 77.3006V104.901H247.4V76.8006C247.4 71.3006 246.1 67.2006 243.4 64.6006C240.8 61.9006 236.7 60.6006 231.4 60.6006Z" fill="#000"/>
<path d="M275.2 60.6006C272.3 60.6006 269.5 61.2006 267.1 62.4006C265 63.4006 263.3 64.7006 262 66.4006L261.1 61.4006H254.2V105.001H262.6V82.4006C262.6 77.2006 263.5 73.4006 265.4 71.2006C267.2 69.0006 270.2 67.9006 274.2 67.9006C277.2 67.9006 279.4 68.7006 280.8 70.2006C282.2 71.7006 282.9 74.1006 282.9 77.3006V104.901H291.2V76.8006C291.2 71.3006 289.9 67.2006 287.2 64.6006C284.6 61.9006 280.6 60.6006 275.2 60.6006Z" fill="#000"/>
<path d="M316 60.6006C309.6 60.6006 304.6 62.6006 301 66.6006C297.5 70.5006 295.7 76.1006 295.7 83.1006C295.7 87.6006 296.5 91.6006 298.1 95.0006C299.7 98.4006 302.1 101.101 305.2 103.001C308.2 104.801 311.8 105.801 315.7 105.801C322 105.801 327.1 103.801 330.7 99.8006C334.3 95.8006 336.1 90.2006 336.1 83.2006C336.1 76.3006 334.3 70.8006 330.7 66.8006C327.1 62.6006 322.1 60.6006 316 60.6006ZM324.5 94.7006C322.5 97.3006 319.7 98.5006 315.9 98.5006C312 98.5006 309.2 97.2006 307.3 94.7006C305.3 92.1006 304.3 88.2006 304.3 83.1006C304.3 72.9006 308.1 67.9006 315.8 67.9006C319.7 67.9006 322.5 69.1006 324.5 71.6006C326.5 74.1006 327.5 78.0006 327.5 83.1006C327.5 88.1006 326.5 92.1006 324.5 94.7006Z" fill="#000"/>
<path d="M389.4 61.3006L383.4 84.3006C382.4 88.4006 381.6 91.5006 381.1 93.8006C380.9 93.0006 380.7 92.2006 380.5 91.4006C380.2 90.4006 380 89.4006 379.7 88.4006L378.9 85.5006L371.5 61.2006H362.9L355.3 85.4006C354.6 87.6006 353.9 90.4006 353.1 93.8006C352.7 91.6006 352 88.8006 351.1 85.3006C349.7 79.9006 344.9 61.1006 344.9 61.1006H336.2L348.1 104.701H357L364.7 80.6006C365.4 78.5006 366.1 75.6006 367 71.8006C368 76.0006 368.8 78.9006 369.3 80.5006L376.7 104.701H385.9L398 61.3006H389.4Z" fill="#000"/>
<path d="M65.6 0.100174C29.9 -2.19983 0 24.5002 0 57.5002C0 58.5002 0.1 59.5002 0.1 60.5002C1 94.3002 16.6 126.5 43.4 149.2C46.3 151.7 50 153 53.8 153C56.2 153 58.6 152.5 60.9 151.4C65.5 149.2 68.5 144.9 69.3 140.2L73.6 113.9C102.9 108.2 124.7 82.8002 122.3 53.1002C120 24.9002 95.6 2.10017 65.6 0.100174ZM28.7 74.1002C29.3 58.7002 42.5 45.8002 58.8 44.7002C63.4 44.4002 67.8 45.0002 71.9 46.3002C73.4 46.8002 74.3 48.2002 74.1 49.7002L64.9 105.5L64.8 105.6C63.6 105.6 62.5 105.7 61.3 105.7C42.9 105.8 28 91.4002 28.7 74.1002ZM101.8 87.0002C95.2 95.0002 85.9 101.1 75.2 103.9L75.4 102.6L83.6 53.0002L84 50.7002C84.9 45.2002 81.7 39.8002 76.2 37.8002H76.1C68.7 35.2002 60.3 34.4002 51.6 36.3002C34.4 40.1002 21.3 53.7002 19.1 70.2002C18.3 76.1002 19 81.8002 20.7 87.0002C26.1 103.2 42.2 115.1 61.3 115.1C62 115.1 62.7 115.1 63.4 115L59.4 138.9C59.1 140.7 57.4 142.9 55.5 143.4C53.6 144 51.6 143.5 50.1 142.3C35.7 130.1 24.7 114.8 17.9 98.1002C13 86.1002 10.3 73.2002 10 60.1002C10 59.3002 9.9 58.4002 9.9 57.6002C9.9 29.2002 36.1 6.50017 67 9.70017C90.7 12.2002 109.7 30.2002 112.2 52.4002C113.7 65.4002 109.6 77.6002 101.8 87.0002Z" fill="#000"/>
</g>
<defs>
<clipPath id="clip0">
<rect width="398" height="153.1" fill="white"/>
</clipPath>
</defs>
</svg>
