<svg width="294" height="344" viewBox="0 0 294 344" fill="none" xmlns="http://www.w3.org/2000/svg">
<path d="M18.6776 273.056H0V342.226H10.3765V315.941H17.2941C25.9412 315.941 32.8588 313.866 37.7012 310.408C42.5435 306.258 44.9647 300.724 44.9647 293.807C44.9647 279.973 35.9718 273.056 18.6776 273.056ZM30.0918 303.837C27.3247 305.912 22.4823 306.949 15.9106 306.949H10.3765V282.048H17.9859C23.52 282.048 28.0165 283.086 30.4376 285.161C32.8588 287.236 34.2423 290.003 34.2423 294.153C34.2423 298.649 32.8588 301.762 30.0918 303.837Z" fill="white"/>
<path d="M55.3412 273.056C53.6118 273.056 52.2282 273.402 51.1906 274.44C50.1529 275.477 49.4612 276.861 49.4612 279.282C49.4612 281.357 50.1529 282.74 51.1906 283.778C52.2282 284.815 53.6118 285.161 55.3412 285.161C56.7247 285.161 58.1083 284.815 59.1459 283.778C60.1836 282.74 60.8753 281.011 60.8753 278.936C60.8753 276.861 60.1836 275.131 59.1459 274.094C58.1083 273.402 56.7247 273.056 55.3412 273.056Z" fill="white"/>
<path d="M60.1837 289.657H50.1531V341.88H60.1837V289.657Z" fill="white"/>
<path d="M94.0797 288.965C90.6209 288.965 87.1621 289.657 84.395 291.04C81.9739 292.078 79.8986 293.807 78.1692 295.882L77.1315 289.657H68.8303V341.88H78.8609V314.904C78.8609 308.679 79.8986 304.183 82.3197 301.416C84.395 298.649 88.1997 297.611 93.0421 297.611C96.5009 297.611 99.268 298.649 100.997 300.378C102.727 302.107 103.419 305.22 103.419 309.024V342.226H113.449V308.333C113.449 301.762 111.72 296.92 108.607 293.807C105.494 290.349 100.652 288.965 94.0797 288.965Z" fill="white"/>
<path d="M146.654 288.965C143.195 288.965 139.737 289.657 136.969 291.04C134.548 292.078 132.473 293.807 130.744 295.882L129.706 289.657H121.405V341.88H131.435V314.904C131.435 308.679 132.473 304.183 134.894 301.416C136.969 298.649 140.774 297.266 145.617 297.266C149.075 297.266 151.842 298.303 153.572 300.032C155.301 301.762 155.993 304.874 155.993 308.679V341.88H166.024V307.987C166.024 301.416 164.294 296.574 161.181 293.461C158.068 290.349 153.226 288.965 146.654 288.965Z" fill="white"/>
<path d="M195.77 288.965C188.16 288.965 181.934 291.386 177.784 296.228C173.633 301.07 171.558 307.641 171.558 315.941C171.558 321.475 172.596 325.971 174.325 330.121C176.4 334.271 179.167 337.384 182.972 339.805C186.777 341.88 190.927 343.263 195.424 343.263C203.033 343.263 208.913 340.842 213.41 336C217.56 331.159 219.981 324.587 219.981 315.941C219.981 307.641 217.906 301.07 213.41 296.228C208.913 291.386 203.033 288.965 195.77 288.965ZM205.8 329.775C203.379 332.888 199.92 334.271 195.424 334.271C190.927 334.271 187.468 332.888 185.047 329.775C182.626 326.663 181.588 321.821 181.588 315.941C181.588 303.491 186.085 297.611 195.424 297.611C199.92 297.611 203.379 298.995 205.8 302.107C208.221 305.22 209.259 309.716 209.259 315.941C209.605 321.821 208.221 326.663 205.8 329.775Z" fill="white"/>
<path d="M283.969 289.657L276.706 317.325C275.322 322.167 274.631 325.971 273.939 328.738C273.593 327.7 273.593 326.663 273.247 325.971C272.901 324.933 272.555 323.55 272.209 322.512L271.172 319.054L262.179 290.003H251.802L242.464 319.054C241.772 321.821 240.734 324.933 239.696 329.083C239.351 326.317 238.313 323.204 237.275 318.708C235.546 312.137 229.666 289.657 229.666 289.657H219.289L233.471 341.88H244.193L253.532 312.829C254.224 310.408 255.261 306.949 256.299 302.108C257.336 307.295 258.374 310.754 259.066 312.483L268.059 341.534H279.127L294 289.657H283.969Z" fill="white"/>
<path d="M153.918 0.236769C96.847 -3.56754 49.1152 38.9715 49.1152 91.8859C49.1152 93.6151 49.1152 94.9985 49.1152 96.7277C50.4988 151.026 75.7482 202.557 118.638 238.87C123.134 242.675 129.36 244.75 135.24 244.75C139.045 244.75 142.849 244.058 146.654 242.329C153.918 238.87 158.76 231.953 160.143 224.345L167.061 182.152C214.101 173.16 249.035 132.35 245.231 84.6231C241.08 39.6632 202.341 3.34938 153.918 0.236769ZM95.1176 118.516C96.1552 93.961 117.254 73.2102 143.541 71.481C150.805 71.1352 158.068 71.8268 164.64 74.2478C167.061 74.9395 168.445 77.3604 168.099 79.7813L153.226 169.01H152.88C150.805 169.01 149.075 169.01 147.346 169.01C117.6 169.355 94.0799 146.184 95.1176 118.516ZM212.026 139.267C201.303 152.063 186.431 161.747 169.482 166.243L169.828 164.168L182.972 84.6231L183.663 81.1647C185.047 72.5185 179.859 63.5265 171.212 60.4139C159.452 56.2638 145.962 54.8804 131.781 57.993C104.111 64.2182 83.0117 86.0065 79.8988 112.291C78.5152 121.629 79.5529 130.966 82.3199 139.267C90.967 165.205 116.908 184.227 147.346 184.227C148.383 184.227 149.421 184.227 150.805 184.227L144.579 222.616C144.233 225.728 141.466 228.841 138.353 229.878C135.24 230.916 132.127 230.224 129.706 228.149C106.532 208.436 88.8917 184.227 78.1694 157.251C70.2141 137.883 66.0635 117.478 65.3717 96.3819C65.3717 94.9985 65.3717 93.6151 65.3717 92.2318C65.0258 46.5801 106.878 10.2663 156.339 15.454C194.386 19.2583 224.823 48.3093 228.628 83.9314C231.049 104.682 224.478 124.05 212.026 139.267Z" fill="white"/>
</svg>
